<?xml version="1.0" encoding="UTF-8"?>
<svg id="Layer_1" data-name="Layer 1" xmlns="http://www.w3.org/2000/svg" xmlns:xlink="http://www.w3.org/1999/xlink" viewBox="0 0 1084.19 242.14">
  <defs>
    <style>
      .cls-1 {
        fill: url(#linear-gradient-2);
      }

      .cls-2 {
        fill: #231f20;
      }

      .cls-3 {
        fill: url(#linear-gradient);
      }
    </style>
    <linearGradient id="linear-gradient" x1="241.11" y1="242.14" x2="241.11" y2="4.72" gradientUnits="userSpaceOnUse">
      <stop offset="0" stop-color="#f7941d"/>
      <stop offset=".2" stop-color="#f68e1d"/>
      <stop offset=".43" stop-color="#f5801f"/>
      <stop offset=".69" stop-color="#f26723"/>
      <stop offset=".97" stop-color="#ef4528"/>
      <stop offset="1" stop-color="#ef4129"/>
    </linearGradient>
    <linearGradient id="linear-gradient-2" x1="82.26" y1="237.56" x2="82.26" y2="0" gradientUnits="userSpaceOnUse">
      <stop offset="0" stop-color="#39bb9d"/>
      <stop offset="1" stop-color="#128078"/>
    </linearGradient>
  </defs>
  <path class="cls-2" d="M870.67,102.81h-12.86l-33.57,76.88h13.12l7.63-17.33.06-.14h38.39l.06.14,7.63,17.33h13.12l-33.57-76.88ZM849.97,150.92l14.27-33.07h0l14.27,33.07h-28.54ZM490.34,168.39h40.53v11.3h-52.88v-76.88h52.88v11.3h-40.53v21.43h38.31v11.3h-38.31v21.55ZM667.13,101.3c-11.38,0-20.94,3.89-28.43,11.58-7.49,7.68-11.29,17.23-11.29,28.37s3.8,20.69,11.29,28.37c7.49,7.68,17.05,11.58,28.43,11.58s20.94-3.89,28.43-11.58c7.49-7.68,11.29-17.23,11.29-28.37s-3.8-20.69-11.29-28.37c-7.49-7.68-17.05-11.58-28.43-11.58ZM686.69,161.68c-5.19,5.46-11.77,8.23-19.56,8.23s-14.38-2.77-19.56-8.23c-5.18-5.45-7.81-12.32-7.81-20.43s2.63-14.97,7.81-20.43c5.19-5.46,11.77-8.23,19.56-8.23s14.37,2.77,19.56,8.23c5.18,5.45,7.81,12.33,7.81,20.43s-2.63,14.97-7.81,20.43ZM585.34,102.81h-30.97v76.88h12.35v-25.93h18.62c8.09,0,14.87-2.74,19.61-7.94,4.2-4.6,6.52-10.81,6.52-17.48,0-12.3-8.18-25.53-26.13-25.53ZM595.2,137.75c-2.57,2.82-6.24,4.3-10.61,4.3h-17.87v-27.59h17.87c9.72,0,14.14,7.17,14.14,13.83,0,3.61-1.26,6.97-3.53,9.46ZM950.35,102.81h-30.96v76.88h12.35v-25.93h18.62c8.09,0,14.87-2.74,19.61-7.94,4.2-4.6,6.52-10.81,6.52-17.48,0-12.3-8.18-25.53-26.13-25.53ZM960.21,137.75c-2.57,2.82-6.24,4.3-10.61,4.3h-17.87l.02-27.59h17.85c9.72,0,14.14,7.17,14.14,13.83,0,3.61-1.26,6.97-3.53,9.46ZM455.28,114.12h-38.28s0,65.56,0,65.56h-12.35v-76.88h50.63v11.31ZM1084.19,102.79v76.92h-12.36v-57l-26.71,44.31h-10.26l-26.71-44.31v57h-12.36v-76.92h14.65l29.55,48.98,29.85-48.98h14.35ZM806.51,118.13c-6.3-5.53-14.36-8.33-23.96-8.33h-6.99v-8.97h-12.35v8.97h-6.98c-9.6,0-17.67,2.8-23.96,8.33-6.29,5.52-9.47,13.02-9.47,22.3s3.19,16.91,9.47,22.42c6.29,5.53,14.35,8.33,23.96,8.33h6.98v10.48h12.35v-10.48h6.99c9.6,0,17.66-2.8,23.96-8.33,6.29-5.52,9.47-13.06,9.47-22.42s-3.19-16.78-9.47-22.3ZM763.21,159.89h-6.98c-5.85,0-10.88-1.66-14.94-4.94-4.08-3.29-6.14-8.18-6.14-14.51s2.07-11.19,6.14-14.45c4.06-3.24,9.09-4.88,14.94-4.88h6.98v38.78ZM797.49,154.94c-4.06,3.28-9.09,4.94-14.94,4.94h-6.99v-38.78h6.99c5.85,0,10.88,1.64,14.94,4.88,4.08,3.25,6.14,8.11,6.14,14.45s-2.07,11.22-6.14,14.51Z"/>
  <path class="cls-3" d="M193.83,87.17c12.09-7.95,32.73-14.39,47.27-14.39,40.79,0,73.98,33.18,73.98,73.96v.06c0,40.79-33.19,73.92-73.97,73.92s-73.96-33.18-73.96-73.97h-21.44c0,52.6,42.8,95.4,95.4,95.4s95.25-42.94,95.4-95.41h0s0-.1,0-.14c0-.05,0-.1,0-.14h0c-.16-52.47-42.9-95.11-95.41-95.11-8.81,0-17.49,1.2-25.83,3.56v-28.73h72.86V4.72h-94.29v82.44Z"/>
  <path class="cls-1" d="M133.98,146.19h-.01c18.62-15.11,30.56-38.15,30.56-63.93C164.52,36.9,127.62,0,82.26,0S0,36.9,0,82.26c0,30.6,16.81,57.33,41.67,71.5l16.68-15.59c-21.68-9.31-36.91-30.87-36.91-55.92,0-33.54,27.29-60.82,60.82-60.82s60.82,27.29,60.82,60.82c0,17.33-7.3,32.98-18.97,44.07h.03S5.49,237.56,5.49,237.56h152.56v-21.44H59.76l74.22-69.93Z"/>
</svg>