<?xml version="1.0" encoding="UTF-8"?>
<svg id="Layer_1" data-name="Layer 1" xmlns="http://www.w3.org/2000/svg" xmlns:xlink="http://www.w3.org/1999/xlink" viewBox="0 0 988.21 945.79">
  <defs>
    <style>
      .cls-1 {
        fill: url(#linear-gradient-2);
      }

      .cls-2 {
        fill: #231f20;
      }

      .cls-3 {
        fill: url(#linear-gradient);
      }
    </style>
    <linearGradient id="linear-gradient" x1="617.35" y1="619.12" x2="617.35" y2="217.43" gradientUnits="userSpaceOnUse">
      <stop offset="0" stop-color="#f7941d"/>
      <stop offset=".2" stop-color="#f68e1d"/>
      <stop offset=".43" stop-color="#f5801f"/>
      <stop offset=".69" stop-color="#f26723"/>
      <stop offset=".97" stop-color="#ef4528"/>
      <stop offset="1" stop-color="#ef4129"/>
    </linearGradient>
    <linearGradient id="linear-gradient-2" x1="348.62" y1="611.34" x2="348.62" y2="209.43" gradientUnits="userSpaceOnUse">
      <stop offset="0" stop-color="#39bb9d"/>
      <stop offset="1" stop-color="#128078"/>
    </linearGradient>
  </defs>
  <path class="cls-2" d="M592.52,674.86h-10.03l-26.18,59.94h10.23l5.95-13.51.05-.11h29.94l.05.11,5.95,13.51h10.23l-26.18-59.94h0ZM576.37,712.37l11.13-25.78h0l11.13,25.78h-22.26ZM295.95,725.99h31.61v8.81h-41.24v-59.94h41.24v8.81h-31.61v16.71h29.87v8.81h-29.87v16.8ZM433.8,673.68c-8.87,0-16.33,3.04-22.17,9.03-5.84,5.99-8.8,13.44-8.8,22.12s2.96,16.14,8.8,22.12c5.84,5.99,13.3,9.03,22.17,9.03s16.33-3.04,22.17-9.03c5.84-5.99,8.8-13.43,8.8-22.12s-2.96-16.13-8.8-22.12-13.3-9.03-22.17-9.03M449.06,720.76c-4.04,4.25-9.17,6.41-15.25,6.41s-11.21-2.16-15.25-6.41-6.09-9.61-6.09-15.93,2.05-11.67,6.09-15.93,9.18-6.41,15.25-6.41,11.21,2.16,15.25,6.41,6.09,9.61,6.09,15.93-2.05,11.67-6.09,15.93M370.03,674.86h-24.15v59.94h9.63v-20.22h14.52c6.31,0,11.59-2.14,15.29-6.19,3.28-3.59,5.08-8.43,5.08-13.63,0-9.59-6.38-19.91-20.37-19.91M377.72,702.1c-2.01,2.19-4.87,3.35-8.27,3.35h-13.93v-21.51h13.93c7.58,0,11.03,5.59,11.03,10.78,0,2.81-.98,5.43-2.75,7.38M654.65,674.86h-24.14v59.94h9.63v-20.22h14.52c6.31,0,11.59-2.14,15.29-6.19,3.28-3.59,5.09-8.43,5.09-13.63,0-9.59-6.38-19.91-20.38-19.91M662.34,702.1c-2,2.19-4.87,3.35-8.27,3.35h-13.93v-21.51h13.93c7.58,0,11.03,5.59,11.03,10.78,0,2.81-.98,5.43-2.76,7.38M268.61,683.68h-29.85v51.12h-9.63v-59.94h39.48v8.82ZM759.01,674.84v59.98h-9.64v-44.44l-20.83,34.55h-8l-20.83-34.55v44.44h-9.64v-59.98h11.42l23.04,38.19,23.28-38.19h11.2ZM542.48,686.81c-4.91-4.31-11.19-6.5-18.68-6.5h-5.45v-6.99h-9.63v6.99h-5.45c-7.49,0-13.77,2.19-18.68,6.5-4.9,4.3-7.39,10.15-7.39,17.39s2.48,13.18,7.39,17.48c4.9,4.31,11.19,6.49,18.68,6.49h5.45v8.17h9.63v-8.17h5.45c7.49,0,13.77-2.19,18.68-6.49,4.9-4.3,7.39-10.19,7.39-17.48s-2.48-13.09-7.39-17.39M508.73,719.37h-5.45c-4.56,0-8.48-1.3-11.65-3.85-3.18-2.57-4.79-6.38-4.79-11.31s1.61-8.73,4.79-11.27c3.17-2.53,7.09-3.81,11.65-3.81h5.45v30.24ZM535.45,715.51c-3.17,2.56-7.09,3.85-11.65,3.85h-5.45v-30.24h5.45c4.56,0,8.48,1.28,11.65,3.81,3.18,2.54,4.79,6.33,4.79,11.27s-1.61,8.75-4.79,11.31"/>
  <path class="cls-3" d="M537.38,217.43v139.48c20.45-13.46,55.38-24.35,79.96-24.35,69.02,0,125.16,56.14,125.16,125.13v.1c0,69-56.15,125.06-125.15,125.06s-125.14-56.14-125.14-125.14h-36.27c0,89,72.41,161.41,161.41,161.41s161.15-72.64,161.41-161.42h.01v-.48h-.01c-.26-88.78-72.58-160.91-161.42-160.91-14.91,0-29.6,2.03-43.71,6.02v-48.62h123.27v-36.27h-159.53.01Z"/>
  <path class="cls-1" d="M209.44,348.61c0,51.78,28.44,97,70.49,120.97l28.22-26.37c-36.68-15.75-62.44-52.22-62.44-94.61,0-56.74,46.16-102.9,102.91-102.9s102.91,46.16,102.91,102.9c0,29.32-12.35,55.8-32.09,74.56h.04l-200.75,188.18h258.11v-36.27h-166.29l125.56-118.31-.02-.02c31.51-25.54,51.7-64.52,51.7-108.14,0-76.74-62.43-139.17-139.17-139.17s-139.17,62.43-139.17,139.17h0Z"/>
</svg>